<svg xmlns="http://www.w3.org/2000/svg" version="1.1" viewBox="0.00 0.00 350.00 350.00" width="350.00" height="350.00">
<g stroke-width="2.00" fill="none" stroke-linecap="butt">
<path stroke="#a13ff4" d="&#10;  M 350.00 110.00&#10;  Q 333.61 109.19 328.06 109.27&#10;  C 307.75 109.54 293.92 109.61 276.77 108.61"/>
<path stroke="#d597f8" d="&#10;  M 276.77 108.61&#10;  Q 270.95 107.56 265.00 107.50&#10;  Q 249.26 107.36 234.24 109.97&#10;  A 1.80 1.80 0.0 0 1 232.74 109.55&#10;  C 221.59 99.89 208.38 92.99 194.11 89.90&#10;  C 168.00 84.26 140.54 90.43 119.80 107.52"/>
<path stroke="#a13ff4" d="&#10;  M 119.80 107.52&#10;  C 93.32 108.60 66.90 108.31 40.40 108.20&#10;  Q 22.47 108.12 0.00 110.14"/>
<path stroke="#cba5fa" d="&#10;  M 276.77 108.61&#10;  C 280.19 109.21 285.77 110.69 288.13 113.91&#10;  A 2.08 2.07 -50.8 0 1 288.34 116.02&#10;  L 288.13 116.47&#10;  A 1.26 1.26 0.0 0 1 286.03 116.76&#10;  Q 282.54 112.63 276.57 111.36&#10;  Q 263.02 108.48 249.23 110.05&#10;  Q 244.55 110.58 236.36 111.96&#10;  A 0.39 0.39 0.0 0 0 236.15 112.62&#10;  Q 263.95 140.67 262.31 180.76&#10;  Q 261.66 196.76 254.39 212.08"/>
<path stroke="#c6acfb" d="&#10;  M 254.39 212.08&#10;  Q 243.66 234.72 222.32 248.72"/>
<path stroke="#c0b4fd" d="&#10;  M 222.32 248.72&#10;  Q 202.87 261.29 179.99 262.46&#10;  C 154.61 263.77 131.28 254.88 113.14 236.93&#10;  A 1.44 1.43 -31.7 0 0 111.69 236.59&#10;  Q 92.76 242.69 73.53 244.91&#10;  Q 68.97 245.44 63.50 244.19&#10;  C 44.53 239.83 60.35 217.49 66.17 209.73"/>
<path stroke="#cba5fa" d="&#10;  M 66.17 209.73&#10;  Q 76.10 196.92 87.50 185.57&#10;  A 1.86 1.85 66.6 0 0 88.04 184.19&#10;  C 87.72 174.21 87.43 164.37 90.01 154.27&#10;  Q 97.18 126.21 119.80 107.52"/>
<path stroke="#cba5fa" d="&#10;  M 226.05 110.89&#10;  Q 225.64 110.24 225.00 109.78&#10;  C 203.68 94.41 178.86 89.03 153.45 96.01&#10;  C 116.49 106.16 90.57 140.86 93.08 179.56&#10;  A 0.37 0.37 0.0 0 0 93.70 179.81&#10;  Q 110.07 165.01 128.65 154.05&#10;  C 133.17 151.38 136.85 147.23 141.20 144.11&#10;  Q 153.42 135.36 167.47 129.22&#10;  Q 195.34 117.07 225.81 111.43&#10;  A 0.36 0.36 0.0 0 0 226.05 110.89"/>
<path stroke="#c6acfb" d="&#10;  M 130.52 183.98&#10;  C 134.96 189.72 141.97 194.81 147.53 198.24&#10;  Q 175.89 215.72 187.96 224.07&#10;  Q 192.85 227.46 194.68 230.36&#10;  C 198.51 236.42 189.12 239.15 184.89 239.91&#10;  Q 173.71 241.91 160.85 240.43&#10;  C 156.85 239.97 148.08 237.72 151.61 232.05&#10;  Q 158.69 220.71 172.34 221.92&#10;  C 173.42 222.02 175.28 222.72 176.04 223.61&#10;  A 0.67 0.67 0.0 0 1 175.36 224.69&#10;  Q 161.70 221.19 155.11 232.76&#10;  A 2.22 2.20 28.7 0 0 156.01 235.81&#10;  Q 160.11 237.97 165.08 238.15&#10;  Q 175.63 238.54 183.96 237.64&#10;  C 186.90 237.33 194.64 235.26 190.62 231.15&#10;  Q 187.86 228.34 186.90 227.63&#10;  C 171.20 216.12 152.26 205.81 136.95 195.05&#10;  C 124.92 186.60 116.98 174.68 125.67 160.29&#10;  A 0.30 0.29 14.5 0 0 125.40 159.84&#10;  Q 125.12 159.85 124.80 160.06&#10;  Q 108.76 170.41 94.38 184.18&#10;  A 2.23 2.19 -26.1 0 0 93.71 186.09&#10;  Q 97.29 212.08 115.42 231.75&#10;  A 1.56 1.56 0.0 0 0 117.14 232.15&#10;  Q 124.04 229.47 130.94 226.19&#10;  C 132.50 225.44 135.88 223.92 137.47 224.85&#10;  A 0.58 0.58 0.0 0 1 137.41 225.89&#10;  L 118.54 234.23&#10;  A 0.27 0.27 0.0 0 0 118.46 234.67&#10;  Q 144.38 259.00 180.26 257.21&#10;  C 199.29 256.26 218.27 247.63 232.02 234.28&#10;  Q 252.37 214.53 256.56 186.26&#10;  Q 257.81 177.85 256.80 169.36"/>
<path stroke="#cba5fa" d="&#10;  M 256.80 169.36&#10;  Q 254.74 140.66 235.49 119.49&#10;  Q 232.52 116.23 229.20 113.67&#10;  A 1.28 1.27 58.4 0 0 228.17 113.42&#10;  Q 201.27 118.65 176.17 128.66&#10;  C 163.96 133.52 152.75 139.10 142.79 146.67&#10;  A 0.26 0.25 -74.8 0 0 143.04 147.11&#10;  C 151.60 143.55 170.23 139.31 167.56 156.28&#10;  Q 166.23 164.78 162.47 173.93&#10;  A 2.33 2.29 -1.2 0 1 161.26 175.17&#10;  L 159.73 175.84&#10;  A 1.24 1.24 0.0 0 1 158.07 174.27&#10;  Q 160.49 167.81 162.08 160.84&#10;  C 163.08 156.49 164.36 150.29 160.22 147.40&#10;  C 154.95 143.73 141.74 150.40 136.32 153.34&#10;  C 132.14 155.60 129.01 160.92 127.21 165.20&#10;  C 124.46 171.73 126.02 178.61 130.52 183.98"/>
<path stroke="#9254f7" d="&#10;  M 256.80 169.36&#10;  C 254.72 174.96 251.89 179.36 245.50 179.67&#10;  Q 241.19 179.87 237.32 179.04"/>
<path stroke="#cba5fa" d="&#10;  M 237.32 179.04&#10;  Q 241.95 173.40 238.47 167.01&#10;  C 236.44 163.28 234.18 164.53 232.23 167.30&#10;  A 0.32 0.31 59.3 0 1 231.66 167.15&#10;  L 229.39 148.10&#10;  A 0.92 0.92 0.0 0 0 228.19 147.34&#10;  L 227.76 147.48&#10;  A 1.11 1.09 77.5 0 0 227.02 148.66&#10;  L 230.07 174.23&#10;  A 1.09 1.04 -37.1 0 1 229.97 174.83&#10;  L 226.10 183.14&#10;  A 0.67 0.67 0.0 0 1 224.86 183.07&#10;  L 222.75 176.67&#10;  A 0.77 0.76 -28.3 0 0 221.54 176.31&#10;  Q 221.11 176.65 220.76 177.42&#10;  Q 220.32 178.37 220.29 178.67&#10;  Q 219.52 185.44 218.05 189.67&#10;  A 0.65 0.64 30.1 0 1 217.02 189.94&#10;  Q 216.85 189.79 216.70 189.30&#10;  Q 216.37 188.25 214.99 181.72&#10;  A 1.15 1.15 0.0 0 0 214.35 180.92&#10;  L 213.88 180.70&#10;  A 0.66 0.66 0.0 0 0 212.95 181.39&#10;  Q 213.56 185.55 212.77 186.73&#10;  Q 212.19 187.61 212.09 188.06&#10;  Q 211.10 192.46 208.52 195.23&#10;  A 1.20 1.20 0.0 0 1 206.58 194.99&#10;  Q 205.46 192.93 204.78 189.73&#10;  Q 203.37 183.06 200.42 167.11&#10;  Q 200.30 166.46 199.74 165.58&#10;  A 0.85 0.85 0.0 0 0 198.18 166.16&#10;  L 199.44 174.81"/>
<path stroke="#9254f7" d="&#10;  M 199.44 174.81&#10;  C 173.16 177.78 153.53 179.73 130.52 183.98"/>
<path stroke="#c6acfb" d="&#10;  M 237.32 179.04&#10;  Q 235.48 179.65 233.94 179.45&#10;  A 0.81 0.81 0.0 0 0 233.10 179.91&#10;  L 232.62 180.93&#10;  A 0.66 0.66 0.0 0 1 231.36 180.73&#10;  L 231.01 177.78&#10;  A 0.40 0.40 0.0 0 0 230.22 177.73&#10;  Q 229.00 182.51 226.65 185.35&#10;  A 1.70 1.68 -76.4 0 1 225.75 185.91&#10;  Q 223.63 186.39 222.48 184.67&#10;  A 0.38 0.38 0.0 0 0 221.83 184.71&#10;  C 221.04 186.27 220.62 190.20 218.21 192.20&#10;  Q 216.76 193.41 215.67 192.37&#10;  Q 214.05 190.84 213.96 188.29&#10;  A 0.34 0.33 -33.1 0 0 213.32 188.16&#10;  Q 213.23 188.35 212.49 191.55&#10;  Q 211.67 195.08 208.94 197.38&#10;  A 2.76 2.76 0.0 0 1 205.74 197.63&#10;  Q 204.32 196.77 203.68 194.81&#10;  A 0.39 0.39 0.0 0 0 202.95 194.79&#10;  C 201.11 199.58 198.14 203.74 193.44 205.41&#10;  C 186.08 208.03 186.99 193.65 194.05 193.07&#10;  A 0.51 0.50 -20.9 0 1 194.51 193.27&#10;  L 194.72 193.55&#10;  A 0.38 0.38 0.0 0 1 194.55 194.13&#10;  C 190.97 195.53 190.30 198.91 191.13 202.35&#10;  A 1.76 1.75 -17.1 0 0 193.46 203.58&#10;  C 197.44 202.05 199.75 198.04 201.35 194.26&#10;  A 1.80 1.79 -5.9 0 1 201.96 193.51&#10;  Q 202.07 193.43 202.21 193.35&#10;  A 0.81 0.79 70.1 0 0 202.59 192.51&#10;  L 199.44 174.81"/>
<path stroke="#c6acfb" d="&#10;  M 89.00 190.26&#10;  A 0.35 0.35 0.0 0 0 88.41 190.07&#10;  Q 74.71 203.82 64.63 219.32&#10;  Q 62.04 223.31 59.89 230.59&#10;  C 55.88 244.20 73.47 243.00 81.02 241.70&#10;  Q 95.78 239.16 110.07 234.68&#10;  A 0.49 0.49 0.0 0 0 110.29 233.88&#10;  Q 93.31 215.01 89.00 190.26"/>
<path stroke="#8c5bf9" d="&#10;  M 66.17 209.73&#10;  C 43.74 207.09 22.28 208.26 0.00 210.88"/>
<path stroke="#9254f7" d="&#10;  M 350.00 213.89&#10;  Q 320.58 205.14 289.46 208.17&#10;  Q 269.64 210.10 254.39 212.08"/>
<path stroke="#cba5fa" d="&#10;  M 235.0367 177.7897&#10;  A 5.41 2.20 89.4 0 0 237.1799 172.3570&#10;  A 5.41 2.20 89.4 0 0 234.9233 166.9703&#10;  A 5.41 2.20 89.4 0 0 232.7801 172.4030&#10;  A 5.41 2.20 89.4 0 0 235.0367 177.7897"/>
<path stroke="#8763f9" d="&#10;  M 350.00 254.43&#10;  Q 324.62 254.69 299.25 255.02&#10;  C 281.80 255.24 267.17 254.77 250.44 253.86&#10;  Q 235.74 253.05 222.32 248.72"/>
<path stroke="#7d6ffc" d="&#10;  M 350.00 310.73&#10;  Q 320.95 308.38 291.77 308.43&#10;  Q 192.19 308.59 103.79 308.39&#10;  Q 81.33 308.33 58.92 309.39&#10;  C 40.72 310.26 19.65 312.77 0.00 314.56"/>
</g>
<path fill="#aa31f1" d="&#10;  M 350.00 0.00&#10;  L 350.00 110.00&#10;  Q 333.61 109.19 328.06 109.27&#10;  C 307.75 109.54 293.92 109.61 276.77 108.61&#10;  Q 270.95 107.56 265.00 107.50&#10;  Q 249.26 107.36 234.24 109.97&#10;  A 1.80 1.80 0.0 0 1 232.74 109.55&#10;  C 221.59 99.89 208.38 92.99 194.11 89.90&#10;  C 168.00 84.26 140.54 90.43 119.80 107.52&#10;  C 93.32 108.60 66.90 108.31 40.40 108.20&#10;  Q 22.47 108.12 0.00 110.14&#10;  L 0.00 0.00&#10;  L 350.00 0.00&#10;  Z"/>
<path fill="#fffdfe" d="&#10;  M 276.77 108.61&#10;  C 280.19 109.21 285.77 110.69 288.13 113.91&#10;  A 2.08 2.07 -50.8 0 1 288.34 116.02&#10;  L 288.13 116.47&#10;  A 1.26 1.26 0.0 0 1 286.03 116.76&#10;  Q 282.54 112.63 276.57 111.36&#10;  Q 263.02 108.48 249.23 110.05&#10;  Q 244.55 110.58 236.36 111.96&#10;  A 0.39 0.39 0.0 0 0 236.15 112.62&#10;  Q 263.95 140.67 262.31 180.76&#10;  Q 261.66 196.76 254.39 212.08&#10;  Q 243.66 234.72 222.32 248.72&#10;  Q 202.87 261.29 179.99 262.46&#10;  C 154.61 263.77 131.28 254.88 113.14 236.93&#10;  A 1.44 1.43 -31.7 0 0 111.69 236.59&#10;  Q 92.76 242.69 73.53 244.91&#10;  Q 68.97 245.44 63.50 244.19&#10;  C 44.53 239.83 60.35 217.49 66.17 209.73&#10;  Q 76.10 196.92 87.50 185.57&#10;  A 1.86 1.85 66.6 0 0 88.04 184.19&#10;  C 87.72 174.21 87.43 164.37 90.01 154.27&#10;  Q 97.18 126.21 119.80 107.52&#10;  C 140.54 90.43 168.00 84.26 194.11 89.90&#10;  C 208.38 92.99 221.59 99.89 232.74 109.55&#10;  A 1.80 1.80 0.0 0 0 234.24 109.97&#10;  Q 249.26 107.36 265.00 107.50&#10;  Q 270.95 107.56 276.77 108.61&#10;  Z&#10;  M 226.05 110.89&#10;  Q 225.64 110.24 225.00 109.78&#10;  C 203.68 94.41 178.86 89.03 153.45 96.01&#10;  C 116.49 106.16 90.57 140.86 93.08 179.56&#10;  A 0.37 0.37 0.0 0 0 93.70 179.81&#10;  Q 110.07 165.01 128.65 154.05&#10;  C 133.17 151.38 136.85 147.23 141.20 144.11&#10;  Q 153.42 135.36 167.47 129.22&#10;  Q 195.34 117.07 225.81 111.43&#10;  A 0.36 0.36 0.0 0 0 226.05 110.89&#10;  Z&#10;  M 130.52 183.98&#10;  C 134.96 189.72 141.97 194.81 147.53 198.24&#10;  Q 175.89 215.72 187.96 224.07&#10;  Q 192.85 227.46 194.68 230.36&#10;  C 198.51 236.42 189.12 239.15 184.89 239.91&#10;  Q 173.71 241.91 160.85 240.43&#10;  C 156.85 239.97 148.08 237.72 151.61 232.05&#10;  Q 158.69 220.71 172.34 221.92&#10;  C 173.42 222.02 175.28 222.72 176.04 223.61&#10;  A 0.67 0.67 0.0 0 1 175.36 224.69&#10;  Q 161.70 221.19 155.11 232.76&#10;  A 2.22 2.20 28.7 0 0 156.01 235.81&#10;  Q 160.11 237.97 165.08 238.15&#10;  Q 175.63 238.54 183.96 237.64&#10;  C 186.90 237.33 194.64 235.26 190.62 231.15&#10;  Q 187.86 228.34 186.90 227.63&#10;  C 171.20 216.12 152.26 205.81 136.95 195.05&#10;  C 124.92 186.60 116.98 174.68 125.67 160.29&#10;  A 0.30 0.29 14.5 0 0 125.40 159.84&#10;  Q 125.12 159.85 124.80 160.06&#10;  Q 108.76 170.41 94.38 184.18&#10;  A 2.23 2.19 -26.1 0 0 93.71 186.09&#10;  Q 97.29 212.08 115.42 231.75&#10;  A 1.56 1.56 0.0 0 0 117.14 232.15&#10;  Q 124.04 229.47 130.94 226.19&#10;  C 132.50 225.44 135.88 223.92 137.47 224.85&#10;  A 0.58 0.58 0.0 0 1 137.41 225.89&#10;  L 118.54 234.23&#10;  A 0.27 0.27 0.0 0 0 118.46 234.67&#10;  Q 144.38 259.00 180.26 257.21&#10;  C 199.29 256.26 218.27 247.63 232.02 234.28&#10;  Q 252.37 214.53 256.56 186.26&#10;  Q 257.81 177.85 256.80 169.36&#10;  Q 254.74 140.66 235.49 119.49&#10;  Q 232.52 116.23 229.20 113.67&#10;  A 1.28 1.27 58.4 0 0 228.17 113.42&#10;  Q 201.27 118.65 176.17 128.66&#10;  C 163.96 133.52 152.75 139.10 142.79 146.67&#10;  A 0.26 0.25 -74.8 0 0 143.04 147.11&#10;  C 151.60 143.55 170.23 139.31 167.56 156.28&#10;  Q 166.23 164.78 162.47 173.93&#10;  A 2.33 2.29 -1.2 0 1 161.26 175.17&#10;  L 159.73 175.84&#10;  A 1.24 1.24 0.0 0 1 158.07 174.27&#10;  Q 160.49 167.81 162.08 160.84&#10;  C 163.08 156.49 164.36 150.29 160.22 147.40&#10;  C 154.95 143.73 141.74 150.40 136.32 153.34&#10;  C 132.14 155.60 129.01 160.92 127.21 165.20&#10;  C 124.46 171.73 126.02 178.61 130.52 183.98&#10;  Z&#10;  M 89.00 190.26&#10;  A 0.35 0.35 0.0 0 0 88.41 190.07&#10;  Q 74.71 203.82 64.63 219.32&#10;  Q 62.04 223.31 59.89 230.59&#10;  C 55.88 244.20 73.47 243.00 81.02 241.70&#10;  Q 95.78 239.16 110.07 234.68&#10;  A 0.49 0.49 0.0 0 0 110.29 233.88&#10;  Q 93.31 215.01 89.00 190.26&#10;  Z"/>
<path fill="#974cf6" d="&#10;  M 226.05 110.89&#10;  A 0.36 0.36 0.0 0 1 225.81 111.43&#10;  Q 195.34 117.07 167.47 129.22&#10;  Q 153.42 135.36 141.20 144.11&#10;  C 136.85 147.23 133.17 151.38 128.65 154.05&#10;  Q 110.07 165.01 93.70 179.81&#10;  A 0.37 0.37 0.0 0 1 93.08 179.56&#10;  C 90.57 140.86 116.49 106.16 153.45 96.01&#10;  C 178.86 89.03 203.68 94.41 225.00 109.78&#10;  Q 225.64 110.24 226.05 110.89&#10;  Z"/>
<path fill="#974cf6" d="&#10;  M 119.80 107.52&#10;  Q 97.18 126.21 90.01 154.27&#10;  C 87.43 164.37 87.72 174.21 88.04 184.19&#10;  A 1.86 1.85 66.6 0 1 87.50 185.57&#10;  Q 76.10 196.92 66.17 209.73&#10;  C 43.74 207.09 22.28 208.26 0.00 210.88&#10;  L 0.00 110.14&#10;  Q 22.47 108.12 40.40 108.20&#10;  C 66.90 108.31 93.32 108.60 119.80 107.52&#10;  Z"/>
<path fill="#974cf6" d="&#10;  M 350.00 110.00&#10;  L 350.00 213.89&#10;  Q 320.58 205.14 289.46 208.17&#10;  Q 269.64 210.10 254.39 212.08&#10;  Q 261.66 196.76 262.31 180.76&#10;  Q 263.95 140.67 236.15 112.62&#10;  A 0.39 0.39 0.0 0 1 236.36 111.96&#10;  Q 244.55 110.58 249.23 110.05&#10;  Q 263.02 108.48 276.57 111.36&#10;  Q 282.54 112.63 286.03 116.76&#10;  A 1.26 1.26 0.0 0 0 288.13 116.47&#10;  L 288.34 116.02&#10;  A 2.08 2.07 -50.8 0 0 288.13 113.91&#10;  C 285.77 110.69 280.19 109.21 276.77 108.61&#10;  C 293.92 109.61 307.75 109.54 328.06 109.27&#10;  Q 333.61 109.19 350.00 110.00&#10;  Z"/>
<path fill="#974cf6" d="&#10;  M 256.80 169.36&#10;  C 254.72 174.96 251.89 179.36 245.50 179.67&#10;  Q 241.19 179.87 237.32 179.04&#10;  Q 241.95 173.40 238.47 167.01&#10;  C 236.44 163.28 234.18 164.53 232.23 167.30&#10;  A 0.32 0.31 59.3 0 1 231.66 167.15&#10;  L 229.39 148.10&#10;  A 0.92 0.92 0.0 0 0 228.19 147.34&#10;  L 227.76 147.48&#10;  A 1.11 1.09 77.5 0 0 227.02 148.66&#10;  L 230.07 174.23&#10;  A 1.09 1.04 -37.1 0 1 229.97 174.83&#10;  L 226.10 183.14&#10;  A 0.67 0.67 0.0 0 1 224.86 183.07&#10;  L 222.75 176.67&#10;  A 0.77 0.76 -28.3 0 0 221.54 176.31&#10;  Q 221.11 176.65 220.76 177.42&#10;  Q 220.32 178.37 220.29 178.67&#10;  Q 219.52 185.44 218.05 189.67&#10;  A 0.65 0.64 30.1 0 1 217.02 189.94&#10;  Q 216.85 189.79 216.70 189.30&#10;  Q 216.37 188.25 214.99 181.72&#10;  A 1.15 1.15 0.0 0 0 214.35 180.92&#10;  L 213.88 180.70&#10;  A 0.66 0.66 0.0 0 0 212.95 181.39&#10;  Q 213.56 185.55 212.77 186.73&#10;  Q 212.19 187.61 212.09 188.06&#10;  Q 211.10 192.46 208.52 195.23&#10;  A 1.20 1.20 0.0 0 1 206.58 194.99&#10;  Q 205.46 192.93 204.78 189.73&#10;  Q 203.37 183.06 200.42 167.11&#10;  Q 200.30 166.46 199.74 165.58&#10;  A 0.85 0.85 0.0 0 0 198.18 166.16&#10;  L 199.44 174.81&#10;  C 173.16 177.78 153.53 179.73 130.52 183.98&#10;  C 126.02 178.61 124.46 171.73 127.21 165.20&#10;  C 129.01 160.92 132.14 155.60 136.32 153.34&#10;  C 141.74 150.40 154.95 143.73 160.22 147.40&#10;  C 164.36 150.29 163.08 156.49 162.08 160.84&#10;  Q 160.49 167.81 158.07 174.27&#10;  A 1.24 1.24 0.0 0 0 159.73 175.84&#10;  L 161.26 175.17&#10;  A 2.33 2.29 -1.2 0 0 162.47 173.93&#10;  Q 166.23 164.78 167.56 156.28&#10;  C 170.23 139.31 151.60 143.55 143.04 147.11&#10;  A 0.26 0.25 -74.8 0 1 142.79 146.67&#10;  C 152.75 139.10 163.96 133.52 176.17 128.66&#10;  Q 201.27 118.65 228.17 113.42&#10;  A 1.28 1.27 58.4 0 1 229.20 113.67&#10;  Q 232.52 116.23 235.49 119.49&#10;  Q 254.74 140.66 256.80 169.36&#10;  Z"/>
<path fill="#fffdfe" d="&#10;  M 237.32 179.04&#10;  Q 235.48 179.65 233.94 179.45&#10;  A 0.81 0.81 0.0 0 0 233.10 179.91&#10;  L 232.62 180.93&#10;  A 0.66 0.66 0.0 0 1 231.36 180.73&#10;  L 231.01 177.78&#10;  A 0.40 0.40 0.0 0 0 230.22 177.73&#10;  Q 229.00 182.51 226.65 185.35&#10;  A 1.70 1.68 -76.4 0 1 225.75 185.91&#10;  Q 223.63 186.39 222.48 184.67&#10;  A 0.38 0.38 0.0 0 0 221.83 184.71&#10;  C 221.04 186.27 220.62 190.20 218.21 192.20&#10;  Q 216.76 193.41 215.67 192.37&#10;  Q 214.05 190.84 213.96 188.29&#10;  A 0.34 0.33 -33.1 0 0 213.32 188.16&#10;  Q 213.23 188.35 212.49 191.55&#10;  Q 211.67 195.08 208.94 197.38&#10;  A 2.76 2.76 0.0 0 1 205.74 197.63&#10;  Q 204.32 196.77 203.68 194.81&#10;  A 0.39 0.39 0.0 0 0 202.95 194.79&#10;  C 201.11 199.58 198.14 203.74 193.44 205.41&#10;  C 186.08 208.03 186.99 193.65 194.05 193.07&#10;  A 0.51 0.50 -20.9 0 1 194.51 193.27&#10;  L 194.72 193.55&#10;  A 0.38 0.38 0.0 0 1 194.55 194.13&#10;  C 190.97 195.53 190.30 198.91 191.13 202.35&#10;  A 1.76 1.75 -17.1 0 0 193.46 203.58&#10;  C 197.44 202.05 199.75 198.04 201.35 194.26&#10;  A 1.80 1.79 -5.9 0 1 201.96 193.51&#10;  Q 202.07 193.43 202.21 193.35&#10;  A 0.81 0.79 70.1 0 0 202.59 192.51&#10;  L 199.44 174.81&#10;  L 198.18 166.16&#10;  A 0.85 0.85 0.0 0 1 199.74 165.58&#10;  Q 200.30 166.46 200.42 167.11&#10;  Q 203.37 183.06 204.78 189.73&#10;  Q 205.46 192.93 206.58 194.99&#10;  A 1.20 1.20 0.0 0 0 208.52 195.23&#10;  Q 211.10 192.46 212.09 188.06&#10;  Q 212.19 187.61 212.77 186.73&#10;  Q 213.56 185.55 212.95 181.39&#10;  A 0.66 0.66 0.0 0 1 213.88 180.70&#10;  L 214.35 180.92&#10;  A 1.15 1.15 0.0 0 1 214.99 181.72&#10;  Q 216.37 188.25 216.70 189.30&#10;  Q 216.85 189.79 217.02 189.94&#10;  A 0.65 0.64 30.1 0 0 218.05 189.67&#10;  Q 219.52 185.44 220.29 178.67&#10;  Q 220.32 178.37 220.76 177.42&#10;  Q 221.11 176.65 221.54 176.31&#10;  A 0.77 0.76 -28.3 0 1 222.75 176.67&#10;  L 224.86 183.07&#10;  A 0.67 0.67 0.0 0 0 226.10 183.14&#10;  L 229.97 174.83&#10;  A 1.09 1.04 -37.1 0 0 230.07 174.23&#10;  L 227.02 148.66&#10;  A 1.11 1.09 77.5 0 1 227.76 147.48&#10;  L 228.19 147.34&#10;  A 0.92 0.92 0.0 0 1 229.39 148.10&#10;  L 231.66 167.15&#10;  A 0.32 0.31 59.3 0 0 232.23 167.30&#10;  C 234.18 164.53 236.44 163.28 238.47 167.01&#10;  Q 241.95 173.40 237.32 179.04&#10;  Z&#10;  M 235.0367 177.7897&#10;  A 5.41 2.20 89.4 0 0 237.1799 172.3570&#10;  A 5.41 2.20 89.4 0 0 234.9233 166.9703&#10;  A 5.41 2.20 89.4 0 0 232.7801 172.4030&#10;  A 5.41 2.20 89.4 0 0 235.0367 177.7897&#10;  Z"/>
<path fill="#8c5bf7" d="&#10;  M 130.52 183.98&#10;  C 153.53 179.73 173.16 177.78 199.44 174.81&#10;  L 202.59 192.51&#10;  A 0.81 0.79 70.1 0 1 202.21 193.35&#10;  Q 202.07 193.43 201.96 193.51&#10;  A 1.80 1.79 -5.9 0 0 201.35 194.26&#10;  C 199.75 198.04 197.44 202.05 193.46 203.58&#10;  A 1.76 1.75 -17.1 0 1 191.13 202.35&#10;  C 190.30 198.91 190.97 195.53 194.55 194.13&#10;  A 0.38 0.38 0.0 0 0 194.72 193.55&#10;  L 194.51 193.27&#10;  A 0.51 0.50 -20.9 0 0 194.05 193.07&#10;  C 186.99 193.65 186.08 208.03 193.44 205.41&#10;  C 198.14 203.74 201.11 199.58 202.95 194.79&#10;  A 0.39 0.39 0.0 0 1 203.68 194.81&#10;  Q 204.32 196.77 205.74 197.63&#10;  A 2.76 2.76 0.0 0 0 208.94 197.38&#10;  Q 211.67 195.08 212.49 191.55&#10;  Q 213.23 188.35 213.32 188.16&#10;  A 0.34 0.33 -33.1 0 1 213.96 188.29&#10;  Q 214.05 190.84 215.67 192.37&#10;  Q 216.76 193.41 218.21 192.20&#10;  C 220.62 190.20 221.04 186.27 221.83 184.71&#10;  A 0.38 0.38 0.0 0 1 222.48 184.67&#10;  Q 223.63 186.39 225.75 185.91&#10;  A 1.70 1.68 -76.4 0 0 226.65 185.35&#10;  Q 229.00 182.51 230.22 177.73&#10;  A 0.40 0.40 0.0 0 1 231.01 177.78&#10;  L 231.36 180.73&#10;  A 0.66 0.66 0.0 0 0 232.62 180.93&#10;  L 233.10 179.91&#10;  A 0.81 0.81 0.0 0 1 233.94 179.45&#10;  Q 235.48 179.65 237.32 179.04&#10;  Q 241.19 179.87 245.50 179.67&#10;  C 251.89 179.36 254.72 174.96 256.80 169.36&#10;  Q 257.81 177.85 256.56 186.26&#10;  Q 252.37 214.53 232.02 234.28&#10;  C 218.27 247.63 199.29 256.26 180.26 257.21&#10;  Q 144.38 259.00 118.46 234.67&#10;  A 0.27 0.27 0.0 0 1 118.54 234.23&#10;  L 137.41 225.89&#10;  A 0.58 0.58 0.0 0 0 137.47 224.85&#10;  C 135.88 223.92 132.50 225.44 130.94 226.19&#10;  Q 124.04 229.47 117.14 232.15&#10;  A 1.56 1.56 0.0 0 1 115.42 231.75&#10;  Q 97.29 212.08 93.71 186.09&#10;  A 2.23 2.19 -26.1 0 1 94.38 184.18&#10;  Q 108.76 170.41 124.80 160.06&#10;  Q 125.12 159.85 125.40 159.84&#10;  A 0.30 0.29 14.5 0 1 125.67 160.29&#10;  C 116.98 174.68 124.92 186.60 136.95 195.05&#10;  C 152.26 205.81 171.20 216.12 186.90 227.63&#10;  Q 187.86 228.34 190.62 231.15&#10;  C 194.64 235.26 186.90 237.33 183.96 237.64&#10;  Q 175.63 238.54 165.08 238.15&#10;  Q 160.11 237.97 156.01 235.81&#10;  A 2.22 2.20 28.7 0 1 155.11 232.76&#10;  Q 161.70 221.19 175.36 224.69&#10;  A 0.67 0.67 0.0 0 0 176.04 223.61&#10;  C 175.28 222.72 173.42 222.02 172.34 221.92&#10;  Q 158.69 220.71 151.61 232.05&#10;  C 148.08 237.72 156.85 239.97 160.85 240.43&#10;  Q 173.71 241.91 184.89 239.91&#10;  C 189.12 239.15 198.51 236.42 194.68 230.36&#10;  Q 192.85 227.46 187.96 224.07&#10;  Q 175.89 215.72 147.53 198.24&#10;  C 141.97 194.81 134.96 189.72 130.52 183.98&#10;  Z"/>
<ellipse fill="#974cf6" cx="0.00" cy="0.00" transform="translate(234.98,172.38) rotate(89.4)" rx="5.41" ry="2.20"/>
<path fill="#8c5bf7" d="&#10;  M 89.00 190.26&#10;  Q 93.31 215.01 110.29 233.88&#10;  A 0.49 0.49 0.0 0 1 110.07 234.68&#10;  Q 95.78 239.16 81.02 241.70&#10;  C 73.47 243.00 55.88 244.20 59.89 230.59&#10;  Q 62.04 223.31 64.63 219.32&#10;  Q 74.71 203.82 88.41 190.07&#10;  A 0.35 0.35 0.0 0 1 89.00 190.26&#10;  Z"/>
<path fill="#8c5bf7" d="&#10;  M 350.00 213.89&#10;  L 350.00 254.43&#10;  Q 324.62 254.69 299.25 255.02&#10;  C 281.80 255.24 267.17 254.77 250.44 253.86&#10;  Q 235.74 253.05 222.32 248.72&#10;  Q 243.66 234.72 254.39 212.08&#10;  Q 269.64 210.10 289.46 208.17&#10;  Q 320.58 205.14 350.00 213.89&#10;  Z"/>
<path fill="#816afb" d="&#10;  M 66.17 209.73&#10;  C 60.35 217.49 44.53 239.83 63.50 244.19&#10;  Q 68.97 245.44 73.53 244.91&#10;  Q 92.76 242.69 111.69 236.59&#10;  A 1.44 1.43 -31.7 0 1 113.14 236.93&#10;  C 131.28 254.88 154.61 263.77 179.99 262.46&#10;  Q 202.87 261.29 222.32 248.72&#10;  Q 235.74 253.05 250.44 253.86&#10;  C 267.17 254.77 281.80 255.24 299.25 255.02&#10;  Q 324.62 254.69 350.00 254.43&#10;  L 350.00 310.73&#10;  Q 320.95 308.38 291.77 308.43&#10;  Q 192.19 308.59 103.79 308.39&#10;  Q 81.33 308.33 58.92 309.39&#10;  C 40.72 310.26 19.65 312.77 0.00 314.56&#10;  L 0.00 210.88&#10;  C 22.28 208.26 43.74 207.09 66.17 209.73&#10;  Z"/>
<path fill="#7973fd" d="&#10;  M 350.00 310.73&#10;  L 350.00 350.00&#10;  L 0.00 350.00&#10;  L 0.00 314.56&#10;  C 19.65 312.77 40.72 310.26 58.92 309.39&#10;  Q 81.33 308.33 103.79 308.39&#10;  Q 192.19 308.59 291.77 308.43&#10;  Q 320.95 308.38 350.00 310.73&#10;  Z"/>
</svg>