<?xml version="1.0" encoding="utf-8"?>
<!-- Generator: Adobe Illustrator 27.0.0, SVG Export Plug-In . SVG Version: 6.00 Build 0)  -->
<svg version="1.1" id="图层_1" xmlns="http://www.w3.org/2000/svg" xmlns:xlink="http://www.w3.org/1999/xlink" x="0px" y="0px"
	 viewBox="0 0 350 80" style="enable-background:new 0 0 350 80;" xml:space="preserve">
<style type="text/css">
	.st0{fill:#FFFFFF;}
</style>
<g>
	<path class="st0" d="M75.67,26.97l-3.94,3.47c-1.38-1.92-2.79-2.88-4.22-2.88c-0.7,0-1.27,0.19-1.71,0.56
		c-0.44,0.37-0.67,0.79-0.67,1.26c0,0.47,0.16,0.91,0.48,1.33c0.43,0.56,1.73,1.75,3.9,3.59c2.03,1.7,3.26,2.76,3.69,3.21
		c1.08,1.09,1.84,2.13,2.29,3.12c0.45,0.99,0.68,2.08,0.68,3.25c0,2.29-0.79,4.18-2.38,5.67c-1.58,1.49-3.65,2.24-6.2,2.24
		c-1.99,0-3.72-0.49-5.2-1.46s-2.74-2.5-3.79-4.59l4.47-2.69c1.34,2.47,2.89,3.7,4.64,3.7c0.91,0,1.68-0.27,2.3-0.8
		s0.93-1.14,0.93-1.84c0-0.63-0.23-1.26-0.7-1.9c-0.47-0.63-1.5-1.6-3.1-2.9c-3.04-2.48-5.01-4.39-5.9-5.74
		c-0.89-1.35-1.33-2.69-1.33-4.03c0-1.94,0.74-3.6,2.21-4.98c1.48-1.38,3.3-2.08,5.47-2.08c1.39,0,2.72,0.32,3.98,0.97
		S74.2,25.26,75.67,26.97z"/>
	<path class="st0" d="M101.37,42.26H84.71c0.24,1.47,0.88,2.63,1.93,3.5c1.04,0.87,2.38,1.3,4,1.3c1.94,0,3.6-0.68,4.99-2.03
		l4.37,2.05c-1.09,1.54-2.39,2.68-3.91,3.42c-1.52,0.74-3.32,1.11-5.41,1.11c-3.24,0-5.88-1.02-7.92-3.06
		c-2.04-2.04-3.06-4.6-3.06-7.67c0-3.15,1.02-5.76,3.05-7.85c2.03-2.08,4.58-3.12,7.64-3.12c3.25,0,5.9,1.04,7.94,3.12
		c2.04,2.08,3.06,4.83,3.06,8.24L101.37,42.26z M96.18,38.18c-0.34-1.15-1.02-2.09-2.03-2.81c-1.01-0.72-2.18-1.08-3.51-1.08
		c-1.45,0-2.71,0.41-3.8,1.21c-0.68,0.51-1.32,1.4-1.9,2.68H96.18z"/>
	<path class="st0" d="M105.56,30.44h5.18v2.12c1.18-0.99,2.24-1.68,3.2-2.07s1.93-0.58,2.93-0.58c2.05,0,3.79,0.71,5.22,2.14
		c1.2,1.21,1.8,3.01,1.8,5.39v13.64h-5.13v-9.04c0-2.46-0.11-4.1-0.33-4.91c-0.22-0.81-0.61-1.42-1.16-1.85
		c-0.55-0.42-1.23-0.63-2.04-0.63c-1.05,0-1.95,0.35-2.7,1.05s-1.27,1.67-1.56,2.91c-0.15,0.64-0.23,2.04-0.23,4.19v8.28h-5.18
		V30.44z"/>
	<path class="st0" d="M144.18,30.44h5.17v17.68c0,3.49-0.7,6.06-2.11,7.7c-1.89,2.23-4.73,3.34-8.53,3.34
		c-2.03,0-3.73-0.25-5.11-0.76c-1.38-0.51-2.54-1.25-3.49-2.23c-0.95-0.98-1.65-2.17-2.11-3.58h5.72c0.51,0.58,1.16,1.02,1.96,1.32
		c0.8,0.3,1.74,0.45,2.83,0.45c1.39,0,2.51-0.21,3.36-0.64c0.85-0.43,1.45-0.99,1.79-1.67c0.35-0.68,0.52-1.86,0.52-3.53
		c-0.91,0.91-1.87,1.57-2.87,1.96c-1,0.4-2.13,0.6-3.4,0.6c-2.77,0-5.12-1-7.03-3c-1.91-2-2.87-4.53-2.87-7.59
		c0-3.28,1.01-5.91,3.04-7.89c1.84-1.8,4.03-2.69,6.57-2.69c1.19,0,2.31,0.22,3.37,0.65c1.06,0.44,2.12,1.15,3.18,2.15V30.44z
		 M138.8,34.75c-1.63,0-2.98,0.55-4.05,1.64c-1.06,1.09-1.6,2.47-1.6,4.13c0,1.72,0.54,3.13,1.63,4.23s2.46,1.65,4.1,1.65
		c1.61,0,2.93-0.54,3.98-1.61c1.04-1.08,1.57-2.49,1.57-4.23c0-1.72-0.53-3.12-1.58-4.19C141.81,35.29,140.46,34.75,138.8,34.75z"/>
	<path class="st0" d="M156.61,21.94c0.91,0,1.69,0.33,2.34,0.99c0.65,0.66,0.98,1.45,0.98,2.39c0,0.92-0.32,1.71-0.97,2.36
		s-1.41,0.98-2.31,0.98c-0.92,0-1.71-0.33-2.36-1c-0.65-0.66-0.98-1.47-0.98-2.42c0-0.91,0.32-1.69,0.97-2.33
		S155.7,21.94,156.61,21.94z M154.01,30.44h5.18v20.64h-5.18V30.44z"/>
	<path class="st0" d="M163.91,30.44h5.18v2.12c1.18-0.99,2.24-1.68,3.2-2.07c0.95-0.39,1.93-0.58,2.93-0.58
		c2.05,0,3.79,0.71,5.21,2.14c1.2,1.21,1.8,3.01,1.8,5.39v13.64h-5.13v-9.04c0-2.46-0.11-4.1-0.33-4.91
		c-0.22-0.81-0.61-1.42-1.15-1.85c-0.55-0.42-1.23-0.63-2.04-0.63c-1.05,0-1.95,0.35-2.7,1.05c-0.75,0.7-1.27,1.67-1.56,2.91
		c-0.15,0.64-0.23,2.04-0.23,4.19v8.28h-5.18V30.44z"/>
	<path class="st0" d="M207.95,42.26h-16.66c0.24,1.47,0.88,2.63,1.93,3.5c1.04,0.87,2.38,1.3,4,1.3c1.94,0,3.6-0.68,5-2.03
		l4.37,2.05c-1.09,1.54-2.39,2.68-3.91,3.42c-1.52,0.74-3.32,1.11-5.41,1.11c-3.24,0-5.88-1.02-7.92-3.06
		c-2.04-2.04-3.06-4.6-3.06-7.67c0-3.15,1.02-5.76,3.05-7.85c2.03-2.08,4.58-3.12,7.64-3.12c3.25,0,5.9,1.04,7.94,3.12
		c2.04,2.08,3.06,4.83,3.06,8.24L207.95,42.26z M202.77,38.18c-0.34-1.15-1.02-2.09-2.03-2.81c-1.01-0.72-2.18-1.08-3.51-1.08
		c-1.45,0-2.71,0.41-3.8,1.21c-0.69,0.51-1.32,1.4-1.9,2.68H202.77z"/>
	<path class="st0" d="M209.96,23.18h15.44v5.24h-5.09v22.67h-5.39V28.41h-4.96V23.18z"/>
	<path class="st0" d="M249.18,42.26h-16.66c0.24,1.47,0.88,2.63,1.93,3.5c1.04,0.87,2.38,1.3,4,1.3c1.94,0,3.6-0.68,5-2.03
		l4.37,2.05c-1.09,1.54-2.39,2.68-3.91,3.42c-1.52,0.74-3.32,1.11-5.41,1.11c-3.24,0-5.88-1.02-7.92-3.06
		c-2.04-2.04-3.06-4.6-3.06-7.67c0-3.15,1.02-5.76,3.05-7.85c2.03-2.08,4.58-3.12,7.64-3.12c3.25,0,5.9,1.04,7.94,3.12
		c2.04,2.08,3.06,4.83,3.06,8.24L249.18,42.26z M244,38.18c-0.34-1.15-1.02-2.09-2.03-2.81c-1.01-0.72-2.18-1.08-3.51-1.08
		c-1.45,0-2.71,0.41-3.8,1.21c-0.69,0.51-1.32,1.4-1.9,2.68H244z"/>
	<path class="st0" d="M273.61,34.62l-4.32,2.37c-0.81-0.85-1.61-1.44-2.41-1.76c-0.79-0.33-1.72-0.49-2.79-0.49
		c-1.94,0-3.51,0.58-4.71,1.73s-1.8,2.64-1.8,4.44c0,1.76,0.58,3.19,1.73,4.3s2.67,1.67,4.54,1.67c2.32,0,4.13-0.79,5.42-2.37
		l4.09,2.8c-2.22,2.88-5.34,4.32-9.38,4.32c-3.63,0-6.48-1.08-8.54-3.23s-3.09-4.67-3.09-7.55c0-2,0.5-3.84,1.5-5.52
		c1-1.68,2.4-3,4.19-3.97c1.79-0.96,3.79-1.44,6.01-1.44c2.05,0,3.89,0.41,5.53,1.22C271.23,31.95,272.57,33.11,273.61,34.62z"/>
	<path class="st0" d="M278.3,22.47h5.15v10.06c1.01-0.87,2.03-1.53,3.06-1.96s2.06-0.65,3.11-0.65c2.05,0,3.78,0.71,5.18,2.12
		c1.2,1.23,1.8,3.03,1.8,5.41v13.64h-5.11v-9.05c0-2.39-0.11-4.01-0.34-4.86c-0.23-0.85-0.62-1.48-1.17-1.9s-1.23-0.63-2.04-0.63
		c-1.05,0-1.95,0.35-2.71,1.04c-0.75,0.7-1.28,1.64-1.57,2.85c-0.15,0.62-0.23,2.04-0.23,4.25v8.29h-5.15V22.47z"/>
</g>
<g>
</g>
<g>
</g>
<g>
</g>
<g>
</g>
<g>
</g>
<g>
</g>
<g>
</g>
<g>
</g>
<g>
</g>
<g>
</g>
<g>
</g>
<g>
</g>
<g>
</g>
<g>
</g>
<g>
</g>
</svg>
