<?xml version="1.0" encoding="utf-8"?>
<!-- Generator: Adobe Illustrator 27.0.0, SVG Export Plug-In . SVG Version: 6.00 Build 0)  -->
<svg version="1.1" id="图层_1" xmlns="http://www.w3.org/2000/svg" xmlns:xlink="http://www.w3.org/1999/xlink" x="0px" y="0px"
	 viewBox="0 0 350 80" style="enable-background:new 0 0 350 80;" xml:space="preserve">
<style type="text/css">
	.st0{fill:#FFFFFF;}
</style>
<g>
	<path class="st0" d="M30.39,23.09l-5.6,4.91c-1.97-2.72-3.97-4.08-6.01-4.08c-0.99,0-1.8,0.26-2.44,0.79
		c-0.63,0.53-0.95,1.12-0.95,1.78c0,0.66,0.23,1.29,0.68,1.88c0.61,0.79,2.46,2.48,5.55,5.07c2.89,2.4,4.64,3.91,5.25,4.53
		c1.53,1.54,2.62,3.01,3.26,4.41c0.64,1.4,0.96,2.94,0.96,4.6c0,3.24-1.13,5.91-3.38,8.02c-2.25,2.11-5.19,3.16-8.81,3.16
		c-2.83,0-5.29-0.69-7.4-2.06s-3.9-3.54-5.39-6.49l6.36-3.81c1.91,3.49,4.11,5.23,6.6,5.23c1.3,0,2.39-0.38,3.27-1.13
		c0.88-0.75,1.33-1.62,1.33-2.6c0-0.89-0.33-1.79-1-2.68c-0.67-0.89-2.14-2.26-4.41-4.1c-4.33-3.5-7.12-6.21-8.39-8.11
		s-1.89-3.8-1.89-5.7c0-2.73,1.05-5.08,3.15-7.04c2.1-1.96,4.69-2.94,7.77-2.94c1.98,0,3.87,0.46,5.67,1.37
		C26.35,19.01,28.3,20.68,30.39,23.09z"/>
	<path class="st0" d="M66.93,44.7H43.25c0.34,2.07,1.26,3.72,2.74,4.95c1.49,1.22,3.38,1.84,5.69,1.84c2.75,0,5.12-0.96,7.1-2.87
		l6.21,2.89c-1.55,2.18-3.4,3.79-5.56,4.84c-2.16,1.04-4.73,1.57-7.7,1.57c-4.61,0-8.36-1.44-11.26-4.33
		c-2.9-2.89-4.35-6.5-4.35-10.84c0-4.45,1.44-8.15,4.33-11.08s6.51-4.41,10.87-4.41c4.63,0,8.39,1.47,11.29,4.41
		c2.9,2.94,4.35,6.82,4.35,11.65L66.93,44.7z M59.56,38.93c-0.49-1.63-1.45-2.95-2.88-3.97c-1.43-1.02-3.1-1.53-4.99-1.53
		c-2.06,0-3.86,0.57-5.41,1.72c-0.97,0.71-1.88,1.98-2.71,3.78H59.56z"/>
	<path class="st0" d="M72.9,27.99h7.37v2.99c1.67-1.4,3.19-2.37,4.54-2.92c1.36-0.55,2.75-0.82,4.17-0.82
		c2.91,0,5.39,1.01,7.42,3.03c1.71,1.72,2.56,4.25,2.56,7.61v19.28h-7.29V44.39c0-3.48-0.16-5.79-0.47-6.94s-0.86-2.01-1.64-2.61
		s-1.75-0.9-2.9-0.9c-1.49,0-2.77,0.5-3.84,1.49c-1.07,0.99-1.81,2.36-2.22,4.11c-0.22,0.91-0.32,2.88-0.32,5.92v11.7H72.9V27.99z"
		/>
	<path class="st0" d="M127.81,27.99h7.35v24.99c0,4.93-1,8.56-3,10.88c-2.68,3.15-6.73,4.72-12.13,4.72c-2.88,0-5.3-0.36-7.27-1.07
		c-1.96-0.71-3.62-1.77-4.97-3.15c-1.35-1.38-2.35-3.07-3-5.05h8.13c0.72,0.82,1.65,1.44,2.78,1.86c1.13,0.42,2.48,0.63,4.02,0.63
		c1.98,0,3.57-0.3,4.78-0.91c1.21-0.61,2.06-1.39,2.55-2.36c0.5-0.96,0.74-2.63,0.74-4.99c-1.3,1.29-2.66,2.21-4.08,2.77
		c-1.42,0.56-3.03,0.84-4.83,0.84c-3.94,0-7.27-1.41-9.99-4.24c-2.72-2.82-4.08-6.4-4.08-10.72c0-4.63,1.44-8.35,4.32-11.15
		c2.61-2.54,5.73-3.81,9.35-3.81c1.69,0,3.29,0.31,4.79,0.92c1.5,0.62,3.01,1.63,4.52,3.04V27.99z M120.17,34.08
		c-2.32,0-4.24,0.77-5.75,2.32s-2.27,3.49-2.27,5.83c0,2.43,0.77,4.42,2.32,5.98c1.55,1.55,3.49,2.33,5.83,2.33
		c2.29,0,4.17-0.76,5.66-2.28s2.23-3.51,2.23-5.98c0-2.43-0.75-4.41-2.24-5.92S122.53,34.08,120.17,34.08z"/>
	<path class="st0" d="M145.49,15.98c1.29,0,2.4,0.47,3.33,1.39c0.92,0.93,1.39,2.06,1.39,3.38c0,1.3-0.46,2.42-1.37,3.34
		c-0.92,0.92-2.01,1.38-3.29,1.38c-1.31,0-2.43-0.47-3.35-1.41c-0.92-0.94-1.39-2.08-1.39-3.42c0-1.29,0.46-2.39,1.37-3.3
		C143.1,16.44,144.2,15.98,145.49,15.98z M141.81,27.99h7.37v29.17h-7.37V27.99z"/>
	<path class="st0" d="M155.88,27.99h7.37v2.99c1.67-1.4,3.19-2.37,4.54-2.92c1.36-0.55,2.75-0.82,4.17-0.82
		c2.91,0,5.39,1.01,7.42,3.03c1.71,1.72,2.56,4.25,2.56,7.61v19.28h-7.29V44.39c0-3.48-0.16-5.79-0.47-6.94s-0.86-2.01-1.64-2.61
		s-1.75-0.9-2.9-0.9c-1.49,0-2.77,0.5-3.84,1.49c-1.07,0.99-1.81,2.36-2.22,4.11c-0.22,0.91-0.32,2.88-0.32,5.92v11.7h-7.37V27.99z"
		/>
	<path class="st0" d="M218.51,44.7h-23.69c0.34,2.07,1.26,3.72,2.74,4.95c1.49,1.22,3.38,1.84,5.69,1.84c2.76,0,5.12-0.96,7.1-2.87
		l6.21,2.89c-1.55,2.18-3.4,3.79-5.56,4.84c-2.16,1.04-4.73,1.57-7.7,1.57c-4.61,0-8.36-1.44-11.26-4.33
		c-2.9-2.89-4.35-6.5-4.35-10.84c0-4.45,1.45-8.15,4.33-11.08c2.89-2.94,6.51-4.41,10.87-4.41c4.63,0,8.39,1.47,11.29,4.41
		s4.35,6.82,4.35,11.65L218.51,44.7z M211.14,38.93c-0.49-1.63-1.45-2.95-2.88-3.97c-1.43-1.02-3.1-1.53-4.99-1.53
		c-2.06,0-3.86,0.57-5.41,1.72c-0.97,0.71-1.88,1.98-2.71,3.78H211.14z"/>
	<path class="st0" d="M221.38,17.73h21.96v7.4h-7.24v32.04h-7.67V25.13h-7.05V17.73z"/>
	<path class="st0" d="M277.15,44.7h-23.69c0.34,2.07,1.26,3.72,2.74,4.95c1.49,1.22,3.38,1.84,5.69,1.84c2.76,0,5.12-0.96,7.1-2.87
		l6.21,2.89c-1.55,2.18-3.4,3.79-5.56,4.84c-2.16,1.04-4.73,1.57-7.7,1.57c-4.61,0-8.36-1.44-11.26-4.33
		c-2.9-2.89-4.35-6.5-4.35-10.84c0-4.45,1.45-8.15,4.33-11.08c2.89-2.94,6.51-4.41,10.87-4.41c4.63,0,8.39,1.47,11.29,4.41
		s4.35,6.82,4.35,11.65L277.15,44.7z M269.78,38.93c-0.49-1.63-1.45-2.95-2.88-3.97c-1.43-1.02-3.1-1.53-4.99-1.53
		c-2.06,0-3.86,0.57-5.41,1.72c-0.97,0.71-1.88,1.98-2.71,3.78H269.78z"/>
	<path class="st0" d="M311.89,33.89l-6.14,3.35c-1.15-1.2-2.29-2.03-3.42-2.49c-1.13-0.46-2.45-0.7-3.96-0.7
		c-2.76,0-4.99,0.82-6.69,2.45c-1.7,1.63-2.56,3.73-2.56,6.28c0,2.48,0.82,4.51,2.46,6.08s3.79,2.36,6.46,2.36
		c3.3,0,5.87-1.12,7.71-3.35l5.81,3.95c-3.15,4.07-7.6,6.1-13.34,6.1c-5.17,0-9.21-1.52-12.14-4.56c-2.93-3.04-4.39-6.6-4.39-10.67
		c0-2.82,0.71-5.42,2.13-7.8c1.42-2.38,3.41-4.24,5.96-5.6c2.55-1.36,5.4-2.04,8.55-2.04c2.92,0,5.54,0.58,7.86,1.73
		S310.41,31.77,311.89,33.89z"/>
	<path class="st0" d="M318.56,16.73h7.32v14.21c1.44-1.23,2.89-2.16,4.35-2.77c1.46-0.62,2.93-0.92,4.43-0.92c2.92,0,5.38,1,7.37,3
		c1.71,1.73,2.57,4.28,2.57,7.64v19.28h-7.27V44.38c0-3.38-0.16-5.67-0.49-6.86c-0.32-1.2-0.88-2.09-1.66-2.68s-1.75-0.88-2.9-0.88
		c-1.5,0-2.78,0.49-3.85,1.47c-1.07,0.98-1.81,2.32-2.23,4.02c-0.22,0.88-0.32,2.88-0.32,6v11.72h-7.32V16.73z"/>
</g>
<g>
</g>
<g>
</g>
<g>
</g>
<g>
</g>
<g>
</g>
<g>
</g>
<g>
</g>
<g>
</g>
<g>
</g>
<g>
</g>
<g>
</g>
<g>
</g>
<g>
</g>
<g>
</g>
<g>
</g>
</svg>
